<svg width="158" height="54" viewBox="0 0 158 54" fill="none" xmlns="http://www.w3.org/2000/svg">
<g filter="url(#filter0_di_2245_1903)">
<rect x="4" width="150" height="46" rx="14" fill="white"/>
<rect x="4.5" y="0.5" width="149" height="45" rx="13.5" stroke="#D4D2D5"/>
</g>
<path d="M70 13.836V14.34C70 15.436 69.624 16.348 68.872 17.076C68.12 17.796 67.124 18.156 65.884 18.156C64.604 18.156 63.544 17.736 62.704 16.896C61.872 16.048 61.456 15.016 61.456 13.8C61.456 12.584 61.872 11.556 62.704 10.716C63.544 9.868 64.596 9.444 65.86 9.444C66.636 9.444 67.348 9.632 67.996 10.008C68.644 10.376 69.144 10.864 69.496 11.472L68.536 12.036C68.296 11.58 67.932 11.216 67.444 10.944C66.964 10.664 66.432 10.524 65.848 10.524C64.888 10.524 64.1 10.84 63.484 11.472C62.868 12.096 62.56 12.872 62.56 13.8C62.56 14.728 62.868 15.504 63.484 16.128C64.108 16.752 64.912 17.064 65.896 17.064C66.736 17.064 67.416 16.86 67.936 16.452C68.456 16.036 68.772 15.5 68.884 14.844H65.8V13.836H70ZM72.101 15.48C72.205 16.016 72.449 16.432 72.833 16.728C73.225 17.024 73.705 17.172 74.273 17.172C75.065 17.172 75.641 16.88 76.001 16.296L76.889 16.8C76.305 17.704 75.425 18.156 74.249 18.156C73.297 18.156 72.521 17.86 71.921 17.268C71.329 16.668 71.033 15.912 71.033 15C71.033 14.096 71.325 13.344 71.909 12.744C72.493 12.144 73.249 11.844 74.177 11.844C75.057 11.844 75.773 12.156 76.325 12.78C76.885 13.396 77.165 14.14 77.165 15.012C77.165 15.164 77.153 15.32 77.129 15.48H72.101ZM74.177 12.828C73.617 12.828 73.153 12.988 72.785 13.308C72.417 13.62 72.189 14.04 72.101 14.568H76.109C76.021 14 75.797 13.568 75.437 13.272C75.077 12.976 74.657 12.828 74.177 12.828ZM81.5733 13.008H79.9773V16.26C79.9773 16.556 80.0333 16.768 80.1453 16.896C80.2653 17.016 80.4453 17.08 80.6853 17.088C80.9253 17.088 81.2213 17.08 81.5733 17.064V18C80.6613 18.12 79.9933 18.048 79.5693 17.784C79.1453 17.512 78.9333 17.004 78.9333 16.26V13.008H77.7453V12H78.9333V10.632L79.9773 10.32V12H81.5733V13.008ZM86.6125 10.908C86.4125 10.908 86.2445 10.84 86.1085 10.704C85.9725 10.568 85.9045 10.404 85.9045 10.212C85.9045 10.02 85.9725 9.856 86.1085 9.72C86.2445 9.576 86.4125 9.504 86.6125 9.504C86.8045 9.504 86.9685 9.576 87.1045 9.72C87.2405 9.856 87.3085 10.02 87.3085 10.212C87.3085 10.404 87.2405 10.568 87.1045 10.704C86.9685 10.84 86.8045 10.908 86.6125 10.908ZM86.0845 18V12H87.1285V18H86.0845ZM92.1052 13.008H90.5092V16.26C90.5092 16.556 90.5652 16.768 90.6772 16.896C90.7972 17.016 90.9772 17.08 91.2172 17.088C91.4572 17.088 91.7532 17.08 92.1052 17.064V18C91.1932 18.12 90.5252 18.048 90.1012 17.784C89.6772 17.512 89.4652 17.004 89.4652 16.26V13.008H88.2772V12H89.4652V10.632L90.5092 10.32V12H92.1052V13.008ZM101.68 17.244C101.064 17.852 100.316 18.156 99.4364 18.156C98.5564 18.156 97.8084 17.852 97.1924 17.244C96.5844 16.636 96.2804 15.888 96.2804 15C96.2804 14.112 96.5844 13.364 97.1924 12.756C97.8084 12.148 98.5564 11.844 99.4364 11.844C100.316 11.844 101.064 12.148 101.68 12.756C102.296 13.364 102.604 14.112 102.604 15C102.604 15.888 102.296 16.636 101.68 17.244ZM99.4364 17.136C100.036 17.136 100.54 16.932 100.948 16.524C101.356 16.116 101.56 15.608 101.56 15C101.56 14.392 101.356 13.884 100.948 13.476C100.54 13.068 100.036 12.864 99.4364 12.864C98.8444 12.864 98.3444 13.068 97.9364 13.476C97.5284 13.884 97.3244 14.392 97.3244 15C97.3244 15.608 97.5284 16.116 97.9364 16.524C98.3444 16.932 98.8444 17.136 99.4364 17.136ZM106.943 11.844C107.647 11.844 108.211 12.068 108.635 12.516C109.059 12.956 109.271 13.556 109.271 14.316V18H108.227V14.376C108.227 13.888 108.095 13.512 107.831 13.248C107.567 12.976 107.203 12.84 106.739 12.84C106.219 12.84 105.799 13.004 105.479 13.332C105.159 13.652 104.999 14.148 104.999 14.82V18H103.955V12H104.999V12.864C105.423 12.184 106.071 11.844 106.943 11.844Z" fill="#212121"/>
<path d="M67.18 34L66.676 32.488H63.328L62.824 34H61.036L63.976 25.6H66.028L68.98 34H67.18ZM63.856 30.94H66.16L65.008 27.508L63.856 30.94ZM73.3356 27.832C74.1436 27.832 74.8316 28.14 75.3996 28.756C75.9756 29.364 76.2636 30.112 76.2636 31C76.2636 31.888 75.9756 32.64 75.3996 33.256C74.8316 33.864 74.1436 34.168 73.3356 34.168C72.4956 34.168 71.8476 33.876 71.3916 33.292V36.4H69.8436V28H71.3916V28.708C71.8476 28.124 72.4956 27.832 73.3356 27.832ZM71.8596 32.224C72.1716 32.536 72.5676 32.692 73.0476 32.692C73.5276 32.692 73.9236 32.536 74.2356 32.224C74.5556 31.904 74.7156 31.496 74.7156 31C74.7156 30.504 74.5556 30.1 74.2356 29.788C73.9236 29.468 73.5276 29.308 73.0476 29.308C72.5676 29.308 72.1716 29.468 71.8596 29.788C71.5476 30.1 71.3916 30.504 71.3916 31C71.3916 31.496 71.5476 31.904 71.8596 32.224ZM80.9673 27.832C81.7753 27.832 82.4633 28.14 83.0313 28.756C83.6073 29.364 83.8953 30.112 83.8953 31C83.8953 31.888 83.6073 32.64 83.0313 33.256C82.4633 33.864 81.7753 34.168 80.9673 34.168C80.1273 34.168 79.4793 33.876 79.0233 33.292V36.4H77.4753V28H79.0233V28.708C79.4793 28.124 80.1273 27.832 80.9673 27.832ZM79.4913 32.224C79.8033 32.536 80.1993 32.692 80.6793 32.692C81.1593 32.692 81.5553 32.536 81.8673 32.224C82.1873 31.904 82.3473 31.496 82.3473 31C82.3473 30.504 82.1873 30.1 81.8673 29.788C81.5553 29.468 81.1593 29.308 80.6793 29.308C80.1993 29.308 79.8033 29.468 79.4913 29.788C79.1793 30.1 79.0233 30.504 79.0233 31C79.0233 31.496 79.1793 31.904 79.4913 32.224ZM85.1071 34V25.24H86.6551V34H85.1071ZM89.4999 31.636C89.7079 32.388 90.2719 32.764 91.1919 32.764C91.7839 32.764 92.2319 32.564 92.5359 32.164L93.7839 32.884C93.1919 33.74 92.3199 34.168 91.1679 34.168C90.1759 34.168 89.3799 33.868 88.7799 33.268C88.1799 32.668 87.8799 31.912 87.8799 31C87.8799 30.096 88.1759 29.344 88.7679 28.744C89.3599 28.136 90.1199 27.832 91.0479 27.832C91.9279 27.832 92.6519 28.136 93.2199 28.744C93.7959 29.352 94.0839 30.104 94.0839 31C94.0839 31.2 94.0639 31.412 94.0239 31.636H89.4999ZM89.4759 30.436H92.5359C92.4479 30.028 92.2639 29.724 91.9839 29.524C91.7119 29.324 91.3999 29.224 91.0479 29.224C90.6319 29.224 90.2879 29.332 90.0159 29.548C89.7439 29.756 89.5639 30.052 89.4759 30.436ZM101.345 34.168C100.513 34.168 99.8126 33.984 99.2446 33.616C98.6766 33.24 98.2766 32.732 98.0446 32.092L99.4606 31.264C99.7886 32.12 100.433 32.548 101.393 32.548C101.857 32.548 102.197 32.464 102.413 32.296C102.629 32.128 102.737 31.916 102.737 31.66C102.737 31.364 102.605 31.136 102.341 30.976C102.077 30.808 101.605 30.628 100.925 30.436C100.549 30.324 100.229 30.212 99.9646 30.1C99.7086 29.988 99.4486 29.84 99.1846 29.656C98.9286 29.464 98.7326 29.224 98.5966 28.936C98.4606 28.648 98.3926 28.312 98.3926 27.928C98.3926 27.168 98.6606 26.564 99.1966 26.116C99.7406 25.66 100.393 25.432 101.153 25.432C101.833 25.432 102.429 25.6 102.941 25.936C103.461 26.264 103.865 26.724 104.153 27.316L102.761 28.12C102.425 27.4 101.889 27.04 101.153 27.04C100.809 27.04 100.537 27.12 100.337 27.28C100.145 27.432 100.049 27.632 100.049 27.88C100.049 28.144 100.157 28.36 100.373 28.528C100.597 28.688 101.021 28.864 101.645 29.056C101.901 29.136 102.093 29.2 102.221 29.248C102.357 29.288 102.537 29.356 102.761 29.452C102.993 29.54 103.169 29.624 103.289 29.704C103.417 29.784 103.561 29.892 103.721 30.028C103.881 30.164 104.001 30.304 104.081 30.448C104.169 30.592 104.241 30.768 104.297 30.976C104.361 31.176 104.393 31.396 104.393 31.636C104.393 32.412 104.109 33.028 103.541 33.484C102.981 33.94 102.249 34.168 101.345 34.168ZM108.777 29.488H107.421V31.984C107.421 32.192 107.473 32.344 107.577 32.44C107.681 32.536 107.833 32.592 108.033 32.608C108.233 32.616 108.481 32.612 108.777 32.596V34C107.713 34.12 106.961 34.02 106.521 33.7C106.089 33.38 105.873 32.808 105.873 31.984V29.488H104.829V28H105.873V26.788L107.421 26.32V28H108.777V29.488ZM114.913 33.256C114.297 33.864 113.545 34.168 112.657 34.168C111.769 34.168 111.017 33.864 110.401 33.256C109.793 32.64 109.489 31.888 109.489 31C109.489 30.112 109.793 29.364 110.401 28.756C111.017 28.14 111.769 27.832 112.657 27.832C113.545 27.832 114.297 28.14 114.913 28.756C115.529 29.364 115.837 30.112 115.837 31C115.837 31.888 115.529 32.64 114.913 33.256ZM111.493 32.188C111.805 32.5 112.193 32.656 112.657 32.656C113.121 32.656 113.509 32.5 113.821 32.188C114.133 31.876 114.289 31.48 114.289 31C114.289 30.52 114.133 30.124 113.821 29.812C113.509 29.5 113.121 29.344 112.657 29.344C112.193 29.344 111.805 29.5 111.493 29.812C111.189 30.124 111.037 30.52 111.037 31C111.037 31.48 111.189 31.876 111.493 32.188ZM118.594 29.032C118.738 28.648 118.974 28.36 119.302 28.168C119.638 27.976 120.01 27.88 120.418 27.88V29.608C119.946 29.552 119.522 29.648 119.146 29.896C118.778 30.144 118.594 30.556 118.594 31.132V34H117.046V28H118.594V29.032ZM122.529 31.636C122.737 32.388 123.301 32.764 124.221 32.764C124.813 32.764 125.261 32.564 125.565 32.164L126.813 32.884C126.221 33.74 125.349 34.168 124.197 34.168C123.205 34.168 122.409 33.868 121.809 33.268C121.209 32.668 120.909 31.912 120.909 31C120.909 30.096 121.205 29.344 121.797 28.744C122.389 28.136 123.149 27.832 124.077 27.832C124.957 27.832 125.681 28.136 126.249 28.744C126.825 29.352 127.113 30.104 127.113 31C127.113 31.2 127.093 31.412 127.053 31.636H122.529ZM122.505 30.436H125.565C125.477 30.028 125.293 29.724 125.013 29.524C124.741 29.324 124.429 29.224 124.077 29.224C123.661 29.224 123.317 29.332 123.045 29.548C122.773 29.756 122.593 30.052 122.505 30.436Z" fill="#212121"/>
<path d="M28.3675 33.2575C27.5815 33.2149 26.8419 32.8722 26.3013 32.3C25.6545 31.6778 25.0773 30.9871 24.58 30.24C23.8031 29.1275 23.189 27.9098 22.7563 26.6237C22.2665 25.2402 22.0089 23.7851 21.9938 22.3175C21.9557 20.8774 22.3123 19.4544 23.025 18.2025C23.547 17.3001 24.2915 16.5466 25.1875 16.0137C26.0736 15.4832 27.0848 15.1976 28.1175 15.1862C28.896 15.2323 29.6611 15.4103 30.38 15.7125C30.9538 15.965 31.5563 16.1425 32.175 16.24C32.8575 16.097 33.5244 15.8877 34.1663 15.615C34.9258 15.3184 35.7301 15.1523 36.545 15.1237C36.6538 15.1237 36.7613 15.1237 36.865 15.1362C38.6525 15.1875 40.315 16.065 41.365 17.5112C40.5455 17.9495 39.8637 18.6065 39.3952 19.4091C38.9267 20.2117 38.6899 21.1284 38.7113 22.0575C38.7031 22.7679 38.8456 23.472 39.1293 24.1233C39.4131 24.7747 39.8317 25.3585 40.3575 25.8363C40.8363 26.2925 41.3938 26.6575 42.0025 26.915C41.8775 27.29 41.7338 27.6525 41.5813 28.0175C41.235 28.8241 40.8078 29.5934 40.3063 30.3137C39.832 31.0353 39.2799 31.7027 38.66 32.3037C38.0945 32.8649 37.3408 33.1959 36.545 33.2325C35.8704 33.2026 35.2078 33.0444 34.5925 32.7662C33.929 32.4772 33.216 32.3189 32.4925 32.3C31.7486 32.3147 31.0145 32.4721 30.33 32.7637C29.7388 33.0305 29.1072 33.1965 28.4613 33.255L28.3675 33.2575ZM32.305 15.1237C32.2113 15.1237 32.1175 15.1237 32.0238 15.1125C32.004 14.9637 31.9936 14.8138 31.9925 14.6637C32.0334 13.4152 32.5213 12.2228 33.3675 11.3037C33.8408 10.7756 34.4144 10.3468 35.055 10.0425C35.652 9.73519 36.3043 9.55032 36.9738 9.49875C36.9925 9.6625 36.9925 9.8225 36.9925 9.975C36.9749 11.204 36.5132 12.385 35.6925 13.3C35.2952 13.8328 34.786 14.2721 34.2008 14.5872C33.6156 14.9022 32.9685 15.0854 32.305 15.1237Z" fill="#212121"/>
<defs>
<filter id="filter0_di_2245_1903" x="0" y="-4" width="158" height="58" filterUnits="userSpaceOnUse" color-interpolation-filters="sRGB">
<feFlood flood-opacity="0" result="BackgroundImageFix"/>
<feColorMatrix in="SourceAlpha" type="matrix" values="0 0 0 0 0 0 0 0 0 0 0 0 0 0 0 0 0 0 127 0" result="hardAlpha"/>
<feOffset dy="4"/>
<feGaussianBlur stdDeviation="2"/>
<feComposite in2="hardAlpha" operator="out"/>
<feColorMatrix type="matrix" values="0 0 0 0 0 0 0 0 0 0 0 0 0 0 0 0 0 0 0.14 0"/>
<feBlend mode="normal" in2="BackgroundImageFix" result="effect1_dropShadow_2245_1903"/>
<feBlend mode="normal" in="SourceGraphic" in2="effect1_dropShadow_2245_1903" result="shape"/>
<feColorMatrix in="SourceAlpha" type="matrix" values="0 0 0 0 0 0 0 0 0 0 0 0 0 0 0 0 0 0 127 0" result="hardAlpha"/>
<feOffset dx="-4" dy="-4"/>
<feGaussianBlur stdDeviation="2"/>
<feComposite in2="hardAlpha" operator="arithmetic" k2="-1" k3="1"/>
<feColorMatrix type="matrix" values="0 0 0 0 0 0 0 0 0 0 0 0 0 0 0 0 0 0 0.06 0"/>
<feBlend mode="normal" in2="shape" result="effect2_innerShadow_2245_1903"/>
</filter>
</defs>
</svg>
