<svg width="158" height="54" viewBox="0 0 158 54" fill="none" xmlns="http://www.w3.org/2000/svg">
<g filter="url(#filter0_di_2393_2141)">
<rect x="4" y="4" width="150" height="46" rx="14" fill="white"/>
<rect x="4.5" y="4.5" width="149" height="45" rx="13.5" stroke="#E1E0E2"/>
</g>
<path d="M75 17.836V18.34C75 19.436 74.624 20.348 73.872 21.076C73.12 21.796 72.124 22.156 70.884 22.156C69.604 22.156 68.544 21.736 67.704 20.896C66.872 20.048 66.456 19.016 66.456 17.8C66.456 16.584 66.872 15.556 67.704 14.716C68.544 13.868 69.596 13.444 70.86 13.444C71.636 13.444 72.348 13.632 72.996 14.008C73.644 14.376 74.144 14.864 74.496 15.472L73.536 16.036C73.296 15.58 72.932 15.216 72.444 14.944C71.964 14.664 71.432 14.524 70.848 14.524C69.888 14.524 69.1 14.84 68.484 15.472C67.868 16.096 67.56 16.872 67.56 17.8C67.56 18.728 67.868 19.504 68.484 20.128C69.108 20.752 69.912 21.064 70.896 21.064C71.736 21.064 72.416 20.86 72.936 20.452C73.456 20.036 73.772 19.5 73.884 18.844H70.8V17.836H75ZM77.101 19.48C77.205 20.016 77.449 20.432 77.833 20.728C78.225 21.024 78.705 21.172 79.273 21.172C80.065 21.172 80.641 20.88 81.001 20.296L81.889 20.8C81.305 21.704 80.425 22.156 79.249 22.156C78.297 22.156 77.521 21.86 76.921 21.268C76.329 20.668 76.033 19.912 76.033 19C76.033 18.096 76.325 17.344 76.909 16.744C77.493 16.144 78.249 15.844 79.177 15.844C80.057 15.844 80.773 16.156 81.325 16.78C81.885 17.396 82.165 18.14 82.165 19.012C82.165 19.164 82.153 19.32 82.129 19.48H77.101ZM79.177 16.828C78.617 16.828 78.153 16.988 77.785 17.308C77.417 17.62 77.189 18.04 77.101 18.568H81.109C81.021 18 80.797 17.568 80.437 17.272C80.077 16.976 79.657 16.828 79.177 16.828ZM86.5733 17.008H84.9773V20.26C84.9773 20.556 85.0333 20.768 85.1453 20.896C85.2653 21.016 85.4453 21.08 85.6853 21.088C85.9253 21.088 86.2213 21.08 86.5733 21.064V22C85.6613 22.12 84.9933 22.048 84.5693 21.784C84.1453 21.512 83.9333 21.004 83.9333 20.26V17.008H82.7453V16H83.9333V14.632L84.9773 14.32V16H86.5733V17.008ZM91.6125 14.908C91.4125 14.908 91.2445 14.84 91.1085 14.704C90.9725 14.568 90.9045 14.404 90.9045 14.212C90.9045 14.02 90.9725 13.856 91.1085 13.72C91.2445 13.576 91.4125 13.504 91.6125 13.504C91.8045 13.504 91.9685 13.576 92.1045 13.72C92.2405 13.856 92.3085 14.02 92.3085 14.212C92.3085 14.404 92.2405 14.568 92.1045 14.704C91.9685 14.84 91.8045 14.908 91.6125 14.908ZM91.0845 22V16H92.1285V22H91.0845ZM97.1052 17.008H95.5092V20.26C95.5092 20.556 95.5652 20.768 95.6772 20.896C95.7972 21.016 95.9772 21.08 96.2172 21.088C96.4572 21.088 96.7532 21.08 97.1052 21.064V22C96.1932 22.12 95.5252 22.048 95.1012 21.784C94.6772 21.512 94.4652 21.004 94.4652 20.26V17.008H93.2772V16H94.4652V14.632L95.5092 14.32V16H97.1052V17.008ZM106.68 21.244C106.064 21.852 105.316 22.156 104.436 22.156C103.556 22.156 102.808 21.852 102.192 21.244C101.584 20.636 101.28 19.888 101.28 19C101.28 18.112 101.584 17.364 102.192 16.756C102.808 16.148 103.556 15.844 104.436 15.844C105.316 15.844 106.064 16.148 106.68 16.756C107.296 17.364 107.604 18.112 107.604 19C107.604 19.888 107.296 20.636 106.68 21.244ZM104.436 21.136C105.036 21.136 105.54 20.932 105.948 20.524C106.356 20.116 106.56 19.608 106.56 19C106.56 18.392 106.356 17.884 105.948 17.476C105.54 17.068 105.036 16.864 104.436 16.864C103.844 16.864 103.344 17.068 102.936 17.476C102.528 17.884 102.324 18.392 102.324 19C102.324 19.608 102.528 20.116 102.936 20.524C103.344 20.932 103.844 21.136 104.436 21.136ZM111.943 15.844C112.647 15.844 113.211 16.068 113.635 16.516C114.059 16.956 114.271 17.556 114.271 18.316V22H113.227V18.376C113.227 17.888 113.095 17.512 112.831 17.248C112.567 16.976 112.203 16.84 111.739 16.84C111.219 16.84 110.799 17.004 110.479 17.332C110.159 17.652 109.999 18.148 109.999 18.82V22H108.955V16H109.999V16.864C110.423 16.184 111.071 15.844 111.943 15.844Z" fill="#074C43"/>
<path d="M69.912 29.6C70.72 29.6 71.4 29.872 71.952 30.416C72.504 30.96 72.78 31.628 72.78 32.42C72.78 33.212 72.504 33.88 71.952 34.424C71.4 34.968 70.72 35.24 69.912 35.24H68.436V38H66.78V29.6H69.912ZM69.912 33.692C70.264 33.692 70.556 33.572 70.788 33.332C71.02 33.084 71.136 32.78 71.136 32.42C71.136 32.052 71.02 31.748 70.788 31.508C70.556 31.268 70.264 31.148 69.912 31.148H68.436V33.692H69.912ZM73.9061 38V29.24H75.4541V38H73.9061ZM81.551 32H83.099V38H81.551V37.292C81.087 37.876 80.435 38.168 79.595 38.168C78.795 38.168 78.107 37.864 77.531 37.256C76.963 36.64 76.679 35.888 76.679 35C76.679 34.112 76.963 33.364 77.531 32.756C78.107 32.14 78.795 31.832 79.595 31.832C80.435 31.832 81.087 32.124 81.551 32.708V32ZM78.695 36.224C79.007 36.536 79.403 36.692 79.883 36.692C80.363 36.692 80.759 36.536 81.071 36.224C81.391 35.904 81.551 35.496 81.551 35C81.551 34.504 81.391 34.1 81.071 33.788C80.759 33.468 80.363 33.308 79.883 33.308C79.403 33.308 79.007 33.468 78.695 33.788C78.383 34.1 78.227 34.504 78.227 35C78.227 35.496 78.383 35.904 78.695 36.224ZM88.5347 32H90.1907L88.0067 38C87.6947 38.864 87.2787 39.488 86.7587 39.872C86.2467 40.264 85.6067 40.44 84.8387 40.4V38.96C85.2547 38.968 85.5827 38.88 85.8227 38.696C86.0707 38.512 86.2667 38.216 86.4107 37.808L83.9507 32H85.6427L87.2027 36.032L88.5347 32ZM97.1074 38.168C96.2754 38.168 95.5754 37.984 95.0074 37.616C94.4394 37.24 94.0394 36.732 93.8074 36.092L95.2234 35.264C95.5514 36.12 96.1954 36.548 97.1554 36.548C97.6194 36.548 97.9594 36.464 98.1754 36.296C98.3914 36.128 98.4994 35.916 98.4994 35.66C98.4994 35.364 98.3674 35.136 98.1034 34.976C97.8394 34.808 97.3674 34.628 96.6874 34.436C96.3114 34.324 95.9914 34.212 95.7274 34.1C95.4714 33.988 95.2114 33.84 94.9474 33.656C94.6914 33.464 94.4954 33.224 94.3594 32.936C94.2234 32.648 94.1554 32.312 94.1554 31.928C94.1554 31.168 94.4234 30.564 94.9594 30.116C95.5034 29.66 96.1554 29.432 96.9154 29.432C97.5954 29.432 98.1914 29.6 98.7034 29.936C99.2234 30.264 99.6274 30.724 99.9154 31.316L98.5234 32.12C98.1874 31.4 97.6514 31.04 96.9154 31.04C96.5714 31.04 96.2994 31.12 96.0994 31.28C95.9074 31.432 95.8114 31.632 95.8114 31.88C95.8114 32.144 95.9194 32.36 96.1354 32.528C96.3594 32.688 96.7834 32.864 97.4074 33.056C97.6634 33.136 97.8554 33.2 97.9834 33.248C98.1194 33.288 98.2994 33.356 98.5234 33.452C98.7554 33.54 98.9314 33.624 99.0514 33.704C99.1794 33.784 99.3234 33.892 99.4834 34.028C99.6434 34.164 99.7634 34.304 99.8434 34.448C99.9314 34.592 100.003 34.768 100.059 34.976C100.123 35.176 100.155 35.396 100.155 35.636C100.155 36.412 99.8714 37.028 99.3034 37.484C98.7434 37.94 98.0114 38.168 97.1074 38.168ZM104.54 33.488H103.184V35.984C103.184 36.192 103.236 36.344 103.34 36.44C103.444 36.536 103.596 36.592 103.796 36.608C103.996 36.616 104.244 36.612 104.54 36.596V38C103.476 38.12 102.724 38.02 102.284 37.7C101.852 37.38 101.636 36.808 101.636 35.984V33.488H100.592V32H101.636V30.788L103.184 30.32V32H104.54V33.488ZM110.676 37.256C110.06 37.864 109.308 38.168 108.42 38.168C107.532 38.168 106.78 37.864 106.164 37.256C105.556 36.64 105.252 35.888 105.252 35C105.252 34.112 105.556 33.364 106.164 32.756C106.78 32.14 107.532 31.832 108.42 31.832C109.308 31.832 110.06 32.14 110.676 32.756C111.292 33.364 111.6 34.112 111.6 35C111.6 35.888 111.292 36.64 110.676 37.256ZM107.256 36.188C107.568 36.5 107.956 36.656 108.42 36.656C108.884 36.656 109.272 36.5 109.584 36.188C109.896 35.876 110.052 35.48 110.052 35C110.052 34.52 109.896 34.124 109.584 33.812C109.272 33.5 108.884 33.344 108.42 33.344C107.956 33.344 107.568 33.5 107.256 33.812C106.952 34.124 106.8 34.52 106.8 35C106.8 35.48 106.952 35.876 107.256 36.188ZM114.357 33.032C114.501 32.648 114.737 32.36 115.065 32.168C115.401 31.976 115.773 31.88 116.181 31.88V33.608C115.709 33.552 115.285 33.648 114.909 33.896C114.541 34.144 114.357 34.556 114.357 35.132V38H112.809V32H114.357V33.032ZM118.291 35.636C118.499 36.388 119.063 36.764 119.983 36.764C120.575 36.764 121.023 36.564 121.327 36.164L122.575 36.884C121.983 37.74 121.111 38.168 119.959 38.168C118.967 38.168 118.171 37.868 117.571 37.268C116.971 36.668 116.671 35.912 116.671 35C116.671 34.096 116.967 33.344 117.559 32.744C118.151 32.136 118.911 31.832 119.839 31.832C120.719 31.832 121.443 32.136 122.011 32.744C122.587 33.352 122.875 34.104 122.875 35C122.875 35.2 122.855 35.412 122.815 35.636H118.291ZM118.267 34.436H121.327C121.239 34.028 121.055 33.724 120.775 33.524C120.503 33.324 120.191 33.224 119.839 33.224C119.423 33.224 119.079 33.332 118.807 33.548C118.535 33.756 118.355 34.052 118.267 34.436Z" fill="#074C43"/>
<g clip-path="url(#clip0_2393_2141)">
<path d="M27.196 36.9117L47.5432 26.7391C48.1523 26.4345 48.1523 25.5654 47.5432 25.2609L27.196 15.0883C26.6465 14.8136 26 15.2131 26 15.8274V36.1726C26 36.7868 26.6465 37.1864 27.196 36.9117Z" fill="#F6B94C"/>
<path d="M26.276 15.2109C26.1093 15.3589 26 15.5749 26 15.8273V36.1725C26 36.4249 26.1093 36.6409 26.276 36.7889L37.065 25.9999L26.276 15.2109Z" fill="#52C1FF"/>
<path d="M41.0503 22.0147L27.196 15.0883C26.8723 14.9264 26.5151 14.9987 26.276 15.2109L37.065 25.9999L41.0503 22.0147Z" fill="#67C7A5"/>
<path d="M26.276 36.789C26.5151 37.0012 26.8723 37.0735 27.196 36.9117L41.0503 29.9852L37.065 26L26.276 36.789Z" fill="#F56C61"/>
</g>
<defs>
<filter id="filter0_di_2393_2141" x="0" y="0" width="158" height="54" filterUnits="userSpaceOnUse" color-interpolation-filters="sRGB">
<feFlood flood-opacity="0" result="BackgroundImageFix"/>
<feColorMatrix in="SourceAlpha" type="matrix" values="0 0 0 0 0 0 0 0 0 0 0 0 0 0 0 0 0 0 127 0" result="hardAlpha"/>
<feOffset/>
<feGaussianBlur stdDeviation="2"/>
<feComposite in2="hardAlpha" operator="out"/>
<feColorMatrix type="matrix" values="0 0 0 0 0 0 0 0 0 0 0 0 0 0 0 0 0 0 0.25 0"/>
<feBlend mode="normal" in2="BackgroundImageFix" result="effect1_dropShadow_2393_2141"/>
<feBlend mode="normal" in="SourceGraphic" in2="effect1_dropShadow_2393_2141" result="shape"/>
<feColorMatrix in="SourceAlpha" type="matrix" values="0 0 0 0 0 0 0 0 0 0 0 0 0 0 0 0 0 0 127 0" result="hardAlpha"/>
<feOffset dy="-4"/>
<feGaussianBlur stdDeviation="2"/>
<feComposite in2="hardAlpha" operator="arithmetic" k2="-1" k3="1"/>
<feColorMatrix type="matrix" values="0 0 0 0 0 0 0 0 0 0 0 0 0 0 0 0 0 0 0.1 0"/>
<feBlend mode="normal" in2="shape" result="effect2_innerShadow_2393_2141"/>
</filter>
<clipPath id="clip0_2393_2141">
<rect width="22" height="22" fill="white" transform="translate(26 15)"/>
</clipPath>
</defs>
</svg>
