<svg width="123" height="32" viewBox="0 0 123 32" fill="none" xmlns="http://www.w3.org/2000/svg">
<path fill-rule="evenodd" clip-rule="evenodd" d="M0 0V7.20347L7.43385 9.9394C10.4176 10.9957 13.7765 12.3463 16.7091 13.3507C18.1072 13.8182 18.0561 14.0952 19.045 13.7143L29.8548 9.87014V31.0996H37.0499V0L30.0594 2.49351C28.3884 3.25541 27.1438 3.61905 25.507 4.27706C24.6886 4.58875 23.9554 4.84849 23.1541 5.14286L18.5505 6.85715C18.2095 6.87446 0.528554 0.0519481 0 0Z" fill="#074C43"/>
<path fill-rule="evenodd" clip-rule="evenodd" d="M48.4235 31.4977H54.5445V21.0389L58.6194 27.9479C58.7899 28.2423 59.1309 28.7099 59.2162 29.0389H59.8982L63.3594 23.0821C63.564 22.7358 64.3653 21.2813 64.5529 21.1254V31.4977H70.7762V9.67953H64.5529C64.4676 10.0085 64.1437 10.4414 63.9732 10.7704L62.0806 14.0778C61.859 14.4414 61.6885 14.7704 61.4839 15.1341C61.2111 15.6536 59.7959 18.251 59.506 18.4588C59.3014 18.0778 59.1139 17.7488 58.9263 17.3852C58.7047 16.9869 58.5001 16.6752 58.2784 16.2596L55.1071 10.6839C54.9537 10.4068 54.6638 9.67953 54.3569 9.67953H48.4235V31.4977Z" fill="#074C43"/>
<path fill-rule="evenodd" clip-rule="evenodd" d="M0 31.0996H7.19515V24.2944L11.0144 25.7316C11.6964 25.974 12.3272 26.2164 12.941 26.4415L18.8745 28.6407C19.4883 28.8312 21.091 27.9827 21.773 27.7403C22.0629 27.619 22.455 27.4978 22.7449 27.3593V20.1385C22.3527 20.1731 20.4431 20.9351 19.9145 21.1255C18.6699 21.5411 19.3348 21.4026 17.1013 20.6407C12.6 19.1342 7.5191 17.0736 2.88147 15.4459C1.94371 15.1169 0.954807 14.6493 0 14.4242V31.0996Z" fill="#A5C533"/>
<path fill-rule="evenodd" clip-rule="evenodd" d="M83.6135 23.7056C83.6135 27.3766 78.4814 27.3246 78.4814 23.7056C78.4814 20.0692 83.6135 20.0519 83.6135 23.7056ZM72.8207 23.2034C72.8207 25.3852 73.0765 26.909 74.3723 28.6406C74.5428 28.8484 74.6451 28.935 74.8156 29.1774C75.0714 29.4891 75.0543 29.4891 75.3442 29.7142C75.7363 30.0086 76.0091 30.303 76.4354 30.5973C77.2026 31.1168 78.2768 31.619 79.2486 31.7921C80.8684 32.0692 82.1301 32.0692 83.6817 31.567C84.483 31.29 85.0798 31.0129 85.7106 30.58C86.2903 30.1818 86.8871 29.6623 87.3304 29.1601C87.7737 28.6406 88.3023 27.896 88.5751 27.2553C91.6441 20.225 85.0798 13.3852 77.9699 15.9826C76.5547 16.5021 75.3612 17.5064 74.4576 18.6493C73.6562 19.6882 72.8207 21.3679 72.8207 23.2034Z" fill="#074C43"/>
<path fill-rule="evenodd" clip-rule="evenodd" d="M112.207 23.7056C112.207 22.0779 113.247 21.0043 114.748 20.9697C115.413 20.9524 116.214 21.2987 116.606 21.6969C117.987 23.0995 117.442 26.3723 114.816 26.4415C113.281 26.4935 112.207 25.2987 112.207 23.7056ZM114.628 32C117.015 32 118.755 31.2208 120.442 29.7835C120.818 29.4718 121.039 29.1255 121.363 28.7619C122.267 27.7229 123 25.697 123 24.1905C123 21.8874 122.744 20.4502 121.397 18.7013C120.869 18.026 120.562 17.6969 119.897 17.1601C115.293 13.5065 107.877 15.8614 106.7 21.8701C105.967 25.5584 107.229 28.3809 109.991 30.4935C111.167 31.3766 113.111 32 114.628 32Z" fill="#074C43"/>
<path fill-rule="evenodd" clip-rule="evenodd" d="M90.673 8.98703V31.4979H96.4018V8.69266H90.9628C90.7412 8.69266 90.673 8.76192 90.673 8.98703Z" fill="#074C43"/>
<path fill-rule="evenodd" clip-rule="evenodd" d="M99.1638 31.4979H104.807V8.69266H99.1638V31.4979Z" fill="#074C43"/>
</svg>
