<svg width="521" height="541" viewBox="0 0 521 541" fill="none" xmlns="http://www.w3.org/2000/svg">
<circle cx="271" cy="250" r="250" fill="#BDFBF1"/>
<g filter="url(#filter0_bd_2245_1883)">
<rect x="107" y="154" width="304" height="319" rx="10" fill="white" fill-opacity="0.36" shape-rendering="crispEdges"/>
<rect x="107.345" y="154.345" width="303.31" height="318.31" rx="9.655" stroke="url(#paint0_linear_2245_1883)" stroke-width="0.69" shape-rendering="crispEdges"/>
</g>
<rect x="109.5" y="157.5" width="298" height="55" rx="3.5" stroke="#EEEDEE"/>
<path d="M176.322 179.2V180.432H173.424V189H172.136V180.432H169.252V179.2H176.322ZM180.313 189L176.813 179.2H178.213L181.055 187.376L183.883 179.2H185.297L181.783 189H180.313Z" fill="#074C43"/>
<circle cx="139" cy="185" r="18" fill="#EDE4F6"/>
<path d="M128.5 176H149.5C150.795 176 151.833 176.89 151.833 178V190C151.833 190.53 151.587 191.039 151.15 191.414C150.712 191.789 150.119 192 149.5 192H143.667V194H134.333V192H128.5C127.217 192 126.178 191.1 126.178 190L126.167 178C126.167 177.47 126.412 176.961 126.85 176.586C127.288 176.211 127.881 176 128.5 176ZM128.5 190H149.5V178H128.5V190Z" fill="#074C43"/>
<rect x="109.5" y="221.5" width="298" height="55" rx="3.5" stroke="#EEEDEE"/>
<path d="M170.05 243.2H171.352V253H170.05V243.2ZM176.954 245.818C177.776 245.818 178.434 246.079 178.928 246.602C179.423 247.115 179.67 247.815 179.67 248.702V253H178.452V248.772C178.452 248.203 178.298 247.764 177.99 247.456C177.682 247.139 177.258 246.98 176.716 246.98C176.11 246.98 175.62 247.171 175.246 247.554C174.873 247.927 174.686 248.506 174.686 249.29V253H173.468V246H174.686V247.008C175.181 246.215 175.937 245.818 176.954 245.818ZM185.319 247.176H183.457V250.97C183.457 251.315 183.522 251.563 183.653 251.712C183.793 251.852 184.003 251.927 184.283 251.936C184.563 251.936 184.908 251.927 185.319 251.908V253C184.255 253.14 183.475 253.056 182.981 252.748C182.486 252.431 182.239 251.838 182.239 250.97V247.176H180.853V246H182.239V244.404L183.457 244.04V246H185.319V247.176ZM187.399 250.06C187.521 250.685 187.805 251.171 188.253 251.516C188.711 251.861 189.271 252.034 189.933 252.034C190.857 252.034 191.529 251.693 191.949 251.012L192.985 251.6C192.304 252.655 191.277 253.182 189.905 253.182C188.795 253.182 187.889 252.837 187.189 252.146C186.499 251.446 186.153 250.564 186.153 249.5C186.153 248.445 186.494 247.568 187.175 246.868C187.857 246.168 188.739 245.818 189.821 245.818C190.848 245.818 191.683 246.182 192.327 246.91C192.981 247.629 193.307 248.497 193.307 249.514C193.307 249.691 193.293 249.873 193.265 250.06H187.399ZM189.821 246.966C189.168 246.966 188.627 247.153 188.197 247.526C187.768 247.89 187.502 248.38 187.399 248.996H192.075C191.973 248.333 191.711 247.829 191.291 247.484C190.871 247.139 190.381 246.966 189.821 246.966ZM196.065 247.176C196.467 246.308 197.195 245.874 198.249 245.874V247.148C197.652 247.12 197.139 247.279 196.709 247.624C196.28 247.969 196.065 248.525 196.065 249.29V253H194.847V246H196.065V247.176ZM203.067 245.818C203.888 245.818 204.546 246.079 205.041 246.602C205.536 247.115 205.783 247.815 205.783 248.702V253H204.565V248.772C204.565 248.203 204.411 247.764 204.103 247.456C203.795 247.139 203.37 246.98 202.829 246.98C202.222 246.98 201.732 247.171 201.359 247.554C200.986 247.927 200.799 248.506 200.799 249.29V253H199.581V246H200.799V247.008C201.294 246.215 202.05 245.818 203.067 245.818ZM208.477 250.06C208.599 250.685 208.883 251.171 209.331 251.516C209.789 251.861 210.349 252.034 211.011 252.034C211.935 252.034 212.607 251.693 213.027 251.012L214.063 251.6C213.382 252.655 212.355 253.182 210.983 253.182C209.873 253.182 208.967 252.837 208.267 252.146C207.577 251.446 207.231 250.564 207.231 249.5C207.231 248.445 207.572 247.568 208.253 246.868C208.935 246.168 209.817 245.818 210.899 245.818C211.926 245.818 212.761 246.182 213.405 246.91C214.059 247.629 214.385 248.497 214.385 249.514C214.385 249.691 214.371 249.873 214.343 250.06H208.477ZM210.899 246.966C210.246 246.966 209.705 247.153 209.275 247.526C208.846 247.89 208.58 248.38 208.477 248.996H213.153C213.051 248.333 212.789 247.829 212.369 247.484C211.949 247.139 211.459 246.966 210.899 246.966ZM219.528 247.176H217.666V250.97C217.666 251.315 217.732 251.563 217.862 251.712C218.002 251.852 218.212 251.927 218.492 251.936C218.772 251.936 219.118 251.927 219.528 251.908V253C218.464 253.14 217.685 253.056 217.19 252.748C216.696 252.431 216.448 251.838 216.448 250.97V247.176H215.062V246H216.448V244.404L217.666 244.04V246H219.528V247.176Z" fill="#074C43"/>
<circle cx="139" cy="249" r="18" fill="#EDE4F6"/>
<path d="M151.833 246L149.5 248C143.702 243.03 134.298 243.03 128.5 248L126.167 246C133.248 239.93 144.74 239.93 151.833 246ZM142.5 254L139 257L135.5 254C135.959 253.605 136.505 253.292 137.105 253.079C137.706 252.865 138.35 252.755 139 252.755C139.65 252.755 140.294 252.865 140.895 253.079C141.495 253.292 142.041 253.605 142.5 254V254ZM147.167 250L144.833 252C143.286 250.675 141.188 249.93 139 249.93C136.812 249.93 134.714 250.675 133.167 252L130.833 250C135.337 246.14 142.652 246.14 147.167 250Z" fill="#074C43"/>
<rect x="109.5" y="285.5" width="298" height="55" rx="3.5" stroke="#EEEDEE"/>
<path d="M171.352 315.768H175.902V317H170.05V307.2H175.832V308.432H171.352V311.442H175.482V312.66H171.352V315.768ZM177.488 317V306.78H178.706V317H177.488ZM181.558 314.06C181.679 314.685 181.964 315.171 182.412 315.516C182.869 315.861 183.429 316.034 184.092 316.034C185.016 316.034 185.688 315.693 186.108 315.012L187.144 315.6C186.463 316.655 185.436 317.182 184.064 317.182C182.953 317.182 182.048 316.837 181.348 316.146C180.657 315.446 180.312 314.564 180.312 313.5C180.312 312.445 180.653 311.568 181.334 310.868C182.015 310.168 182.897 309.818 183.98 309.818C185.007 309.818 185.842 310.182 186.486 310.91C187.139 311.629 187.466 312.497 187.466 313.514C187.466 313.691 187.452 313.873 187.424 314.06H181.558ZM183.98 310.966C183.327 310.966 182.785 311.153 182.356 311.526C181.927 311.89 181.661 312.38 181.558 312.996H186.234C186.131 312.333 185.87 311.829 185.45 311.484C185.03 311.139 184.54 310.966 183.98 310.966ZM192.282 317.182C191.228 317.182 190.35 316.832 189.65 316.132C188.95 315.423 188.6 314.545 188.6 313.5C188.6 312.455 188.95 311.582 189.65 310.882C190.35 310.173 191.228 309.818 192.282 309.818C192.973 309.818 193.594 309.986 194.144 310.322C194.695 310.649 195.106 311.092 195.376 311.652L194.354 312.24C194.177 311.867 193.902 311.568 193.528 311.344C193.164 311.12 192.749 311.008 192.282 311.008C191.582 311.008 190.994 311.246 190.518 311.722C190.052 312.198 189.818 312.791 189.818 313.5C189.818 314.2 190.052 314.788 190.518 315.264C190.994 315.74 191.582 315.978 192.282 315.978C192.749 315.978 193.169 315.871 193.542 315.656C193.916 315.432 194.2 315.133 194.396 314.76L195.432 315.362C195.134 315.913 194.704 316.356 194.144 316.692C193.584 317.019 192.964 317.182 192.282 317.182ZM200.583 311.176H198.721V314.97C198.721 315.315 198.786 315.563 198.917 315.712C199.057 315.852 199.267 315.927 199.547 315.936C199.827 315.936 200.172 315.927 200.583 315.908V317C199.519 317.14 198.74 317.056 198.245 316.748C197.75 316.431 197.503 315.838 197.503 314.97V311.176H196.117V310H197.503V308.404L198.721 308.04V310H200.583V311.176ZM203.424 311.176C203.825 310.308 204.553 309.874 205.608 309.874V311.148C205.011 311.12 204.497 311.279 204.068 311.624C203.639 311.969 203.424 312.525 203.424 313.29V317H202.206V310H203.424V311.176ZM207.556 308.726C207.322 308.726 207.126 308.647 206.968 308.488C206.809 308.329 206.73 308.138 206.73 307.914C206.73 307.69 206.809 307.499 206.968 307.34C207.126 307.172 207.322 307.088 207.556 307.088C207.78 307.088 207.971 307.172 208.13 307.34C208.288 307.499 208.368 307.69 208.368 307.914C208.368 308.138 208.288 308.329 208.13 308.488C207.971 308.647 207.78 308.726 207.556 308.726ZM206.94 317V310H208.158V317H206.94ZM213.446 317.182C212.391 317.182 211.514 316.832 210.814 316.132C210.114 315.423 209.764 314.545 209.764 313.5C209.764 312.455 210.114 311.582 210.814 310.882C211.514 310.173 212.391 309.818 213.446 309.818C214.137 309.818 214.757 309.986 215.308 310.322C215.859 310.649 216.269 311.092 216.54 311.652L215.518 312.24C215.341 311.867 215.065 311.568 214.692 311.344C214.328 311.12 213.913 311.008 213.446 311.008C212.746 311.008 212.158 311.246 211.682 311.722C211.215 312.198 210.982 312.791 210.982 313.5C210.982 314.2 211.215 314.788 211.682 315.264C212.158 315.74 212.746 315.978 213.446 315.978C213.913 315.978 214.333 315.871 214.706 315.656C215.079 315.432 215.364 315.133 215.56 314.76L216.596 315.362C216.297 315.913 215.868 316.356 215.308 316.692C214.748 317.019 214.127 317.182 213.446 317.182ZM218.555 308.726C218.321 308.726 218.125 308.647 217.967 308.488C217.808 308.329 217.729 308.138 217.729 307.914C217.729 307.69 217.808 307.499 217.967 307.34C218.125 307.172 218.321 307.088 218.555 307.088C218.779 307.088 218.97 307.172 219.129 307.34C219.287 307.499 219.367 307.69 219.367 307.914C219.367 308.138 219.287 308.329 219.129 308.488C218.97 308.647 218.779 308.726 218.555 308.726ZM217.939 317V310H219.157V317H217.939ZM224.963 311.176H223.101V314.97C223.101 315.315 223.166 315.563 223.297 315.712C223.437 315.852 223.647 315.927 223.927 315.936C224.207 315.936 224.552 315.927 224.963 315.908V317C223.899 317.14 223.119 317.056 222.625 316.748C222.13 316.431 221.883 315.838 221.883 314.97V311.176H220.497V310H221.883V308.404L223.101 308.04V310H224.963V311.176ZM231.581 310H232.883L230.027 317.434C229.728 318.227 229.308 318.829 228.767 319.24C228.235 319.66 227.619 319.847 226.919 319.8V318.666C227.778 318.731 228.408 318.255 228.809 317.238L228.935 316.972L225.883 310H227.185L229.565 315.488L231.581 310Z" fill="#074C43"/>
<circle cx="139" cy="313" r="18" fill="#EDE4F6"/>
<path d="M142.5 322C142.5 322.55 141.975 323 141.333 323H136.667C136.025 323 135.5 322.55 135.5 322V321H142.5V322ZM139 303C143.503 303 147.167 306.14 147.167 310C147.167 312.38 145.778 314.47 143.667 315.74V318C143.667 318.55 143.142 319 142.5 319H135.5C134.858 319 134.333 318.55 134.333 318V315.74C132.222 314.47 130.833 312.38 130.833 310C130.833 306.14 134.497 303 139 303ZM135.675 314.1L136.667 314.7V317H141.333V314.7L142.325 314.1C143.098 313.641 143.73 313.028 144.167 312.314C144.603 311.6 144.832 310.806 144.833 310C144.833 307.24 142.22 305 139 305C135.78 305 133.167 307.24 133.167 310C133.167 311.63 134.1 313.16 135.675 314.1Z" fill="#074C43"/>
<rect x="109.5" y="349.5" width="298" height="55" rx="3.5" stroke="#EEEDEE"/>
<path d="M175.65 375.918C176.098 376.133 176.453 376.441 176.714 376.842C176.985 377.243 177.12 377.705 177.12 378.228C177.12 379.012 176.845 379.67 176.294 380.202C175.743 380.734 175.071 381 174.278 381H170.05V371.2H173.97C174.735 371.2 175.384 371.457 175.916 371.97C176.448 372.483 176.714 373.118 176.714 373.874C176.714 374.742 176.359 375.423 175.65 375.918ZM173.97 372.418H171.352V375.414H173.97C174.381 375.414 174.726 375.269 175.006 374.98C175.286 374.691 175.426 374.336 175.426 373.916C175.426 373.505 175.281 373.155 174.992 372.866C174.712 372.567 174.371 372.418 173.97 372.418ZM174.278 379.782C174.717 379.782 175.085 379.628 175.384 379.32C175.683 379.012 175.832 378.634 175.832 378.186C175.832 377.747 175.678 377.374 175.37 377.066C175.071 376.758 174.707 376.604 174.278 376.604H171.352V379.782H174.278ZM179.572 378.06C179.694 378.685 179.978 379.171 180.426 379.516C180.884 379.861 181.444 380.034 182.106 380.034C183.03 380.034 183.702 379.693 184.122 379.012L185.158 379.6C184.477 380.655 183.45 381.182 182.078 381.182C180.968 381.182 180.062 380.837 179.362 380.146C178.672 379.446 178.326 378.564 178.326 377.5C178.326 376.445 178.667 375.568 179.348 374.868C180.03 374.168 180.912 373.818 181.994 373.818C183.021 373.818 183.856 374.182 184.5 374.91C185.154 375.629 185.48 376.497 185.48 377.514C185.48 377.691 185.466 377.873 185.438 378.06H179.572ZM181.994 374.966C181.341 374.966 180.8 375.153 180.37 375.526C179.941 375.89 179.675 376.38 179.572 376.996H184.248C184.146 376.333 183.884 375.829 183.464 375.484C183.044 375.139 182.554 374.966 181.994 374.966ZM190.623 375.176H188.761V378.97C188.761 379.315 188.827 379.563 188.957 379.712C189.097 379.852 189.307 379.927 189.587 379.936C189.867 379.936 190.213 379.927 190.623 379.908V381C189.559 381.14 188.78 381.056 188.285 380.748C187.791 380.431 187.543 379.838 187.543 378.97V375.176H186.157V374H187.543V372.404L188.761 372.04V374H190.623V375.176ZM195.644 375.176H193.782V378.97C193.782 379.315 193.848 379.563 193.978 379.712C194.118 379.852 194.328 379.927 194.608 379.936C194.888 379.936 195.234 379.927 195.644 379.908V381C194.58 381.14 193.801 381.056 193.306 380.748C192.812 380.431 192.564 379.838 192.564 378.97V375.176H191.178V374H192.564V372.404L193.782 372.04V374H195.644V375.176ZM197.842 372.726C197.609 372.726 197.413 372.647 197.254 372.488C197.096 372.329 197.016 372.138 197.016 371.914C197.016 371.69 197.096 371.499 197.254 371.34C197.413 371.172 197.609 371.088 197.842 371.088C198.066 371.088 198.258 371.172 198.416 371.34C198.575 371.499 198.654 371.69 198.654 371.914C198.654 372.138 198.575 372.329 198.416 372.488C198.258 372.647 198.066 372.726 197.842 372.726ZM197.226 381V374H198.444V381H197.226ZM203.928 373.818C204.75 373.818 205.408 374.079 205.902 374.602C206.397 375.115 206.644 375.815 206.644 376.702V381H205.426V376.772C205.426 376.203 205.272 375.764 204.964 375.456C204.656 375.139 204.232 374.98 203.69 374.98C203.084 374.98 202.594 375.171 202.22 375.554C201.847 375.927 201.66 376.506 201.66 377.29V381H200.442V374H201.66V375.008C202.155 374.215 202.911 373.818 203.928 373.818ZM214.295 374H215.499V380.706C215.499 381.742 215.149 382.545 214.449 383.114C213.749 383.693 212.909 383.982 211.929 383.982C211.145 383.982 210.468 383.833 209.899 383.534C209.329 383.245 208.9 382.825 208.611 382.274L209.675 381.672C210.057 382.456 210.818 382.848 211.957 382.848C212.685 382.848 213.254 382.657 213.665 382.274C214.085 381.891 214.295 381.369 214.295 380.706V379.712C213.679 380.645 212.801 381.112 211.663 381.112C210.664 381.112 209.819 380.757 209.129 380.048C208.438 379.339 208.093 378.475 208.093 377.458C208.093 376.441 208.438 375.582 209.129 374.882C209.819 374.173 210.664 373.818 211.663 373.818C212.811 373.818 213.688 374.28 214.295 375.204V374ZM210.025 379.236C210.501 379.712 211.093 379.95 211.803 379.95C212.512 379.95 213.105 379.712 213.581 379.236C214.057 378.76 214.295 378.167 214.295 377.458C214.295 376.758 214.057 376.17 213.581 375.694C213.105 375.218 212.512 374.98 211.803 374.98C211.093 374.98 210.501 375.218 210.025 375.694C209.549 376.17 209.311 376.758 209.311 377.458C209.311 378.167 209.549 378.76 210.025 379.236Z" fill="#074C43"/>
<circle cx="139" cy="377" r="18" fill="#EDE4F6"/>
<path d="M130.227 367.49C132.957 365.15 137.95 365.62 141.368 368.55C143.235 370.15 144.308 372.42 144.332 374.01C144.355 375.59 144.028 377.9 145.907 379.51L150.853 383.75L149.197 385.17L144.25 380.93C142.372 379.32 139.677 379.6 137.833 379.58C135.99 379.56 133.33 378.64 131.463 377.04C128.057 374.11 127.497 369.83 130.227 367.49V367.49ZM140.96 376.68C142.745 375.15 142.185 372.07 139.723 369.96C137.262 367.85 133.68 367.37 131.883 368.9C130.098 370.43 130.658 373.51 133.12 375.62C135.582 377.73 139.163 378.21 140.96 376.68V376.68Z" fill="#074C43"/>
<path d="M132 382C131.382 382 130.787 382.21 130.355 382.59C129.445 383.37 129.445 384.64 130.355 385.42C130.787 385.79 131.382 386 132 386C132.618 386 133.213 385.79 133.645 385.41C134.555 384.63 134.555 383.36 133.645 382.58C133.213 382.21 132.618 382 132 382ZM132 380C132.924 379.998 133.828 380.232 134.597 380.671C135.365 381.111 135.965 381.736 136.318 382.468C136.672 383.199 136.764 384.005 136.583 384.781C136.402 385.558 135.956 386.271 135.302 386.83C134.392 387.61 133.19 388 132 388C131.076 388.002 130.172 387.768 129.403 387.329C128.635 386.889 128.035 386.264 127.682 385.532C127.328 384.801 127.236 383.995 127.417 383.219C127.598 382.442 128.044 381.729 128.698 381.17C129.132 380.799 129.647 380.504 130.213 380.303C130.78 380.103 131.387 379.999 132 380V380Z" fill="#074C43"/>
<rect x="109.5" y="413.5" width="298" height="55" rx="3.5" stroke="#EEEDEE"/>
<path d="M176.322 435.2V436.432H173.424V445H172.136V436.432H169.252V435.2H176.322ZM177.886 439.176C178.287 438.308 179.015 437.874 180.07 437.874V439.148C179.472 439.12 178.959 439.279 178.53 439.624C178.1 439.969 177.886 440.525 177.886 441.29V445H176.668V438H177.886V439.176ZM186.814 438H188.032V445H186.814V443.796C186.208 444.72 185.326 445.182 184.168 445.182C183.188 445.182 182.353 444.827 181.662 444.118C180.972 443.399 180.626 442.527 180.626 441.5C180.626 440.473 180.972 439.605 181.662 438.896C182.353 438.177 183.188 437.818 184.168 437.818C185.326 437.818 186.208 438.28 186.814 439.204V438ZM184.322 444.006C185.032 444.006 185.624 443.768 186.1 443.292C186.576 442.807 186.814 442.209 186.814 441.5C186.814 440.791 186.576 440.198 186.1 439.722C185.624 439.237 185.032 438.994 184.322 438.994C183.622 438.994 183.034 439.237 182.558 439.722C182.082 440.198 181.844 440.791 181.844 441.5C181.844 442.209 182.082 442.807 182.558 443.292C183.034 443.768 183.622 444.006 184.322 444.006ZM193.504 437.818C194.325 437.818 194.983 438.079 195.478 438.602C195.972 439.115 196.22 439.815 196.22 440.702V445H195.002V440.772C195.002 440.203 194.848 439.764 194.54 439.456C194.232 439.139 193.807 438.98 193.266 438.98C192.659 438.98 192.169 439.171 191.796 439.554C191.422 439.927 191.236 440.506 191.236 441.29V445H190.018V438H191.236V439.008C191.73 438.215 192.486 437.818 193.504 437.818ZM199.11 439.89C199.11 440.161 199.246 440.38 199.516 440.548C199.787 440.707 200.114 440.837 200.496 440.94C200.879 441.033 201.262 441.145 201.644 441.276C202.027 441.397 202.354 441.612 202.624 441.92C202.895 442.219 203.03 442.606 203.03 443.082C203.03 443.717 202.783 444.225 202.288 444.608C201.803 444.991 201.178 445.182 200.412 445.182C199.731 445.182 199.148 445.033 198.662 444.734C198.177 444.435 197.832 444.039 197.626 443.544L198.676 442.942C198.788 443.278 198.998 443.544 199.306 443.74C199.614 443.936 199.983 444.034 200.412 444.034C200.814 444.034 201.145 443.959 201.406 443.81C201.668 443.651 201.798 443.409 201.798 443.082C201.798 442.811 201.663 442.597 201.392 442.438C201.122 442.27 200.795 442.139 200.412 442.046C200.03 441.943 199.647 441.827 199.264 441.696C198.882 441.565 198.555 441.351 198.284 441.052C198.014 440.753 197.878 440.371 197.878 439.904C197.878 439.297 198.112 438.798 198.578 438.406C199.054 438.014 199.647 437.818 200.356 437.818C200.926 437.818 201.43 437.949 201.868 438.21C202.316 438.462 202.652 438.817 202.876 439.274L201.854 439.848C201.602 439.251 201.103 438.952 200.356 438.952C200.011 438.952 199.717 439.036 199.474 439.204C199.232 439.363 199.11 439.591 199.11 439.89ZM208.476 437.818C209.456 437.818 210.292 438.177 210.982 438.896C211.673 439.605 212.018 440.473 212.018 441.5C212.018 442.527 211.673 443.399 210.982 444.118C210.292 444.827 209.456 445.182 208.476 445.182C207.319 445.182 206.437 444.72 205.83 443.796V447.8H204.612V438H205.83V439.204C206.437 438.28 207.319 437.818 208.476 437.818ZM208.322 444.006C209.022 444.006 209.61 443.768 210.086 443.292C210.562 442.807 210.8 442.209 210.8 441.5C210.8 440.791 210.562 440.198 210.086 439.722C209.61 439.237 209.022 438.994 208.322 438.994C207.613 438.994 207.02 439.237 206.544 439.722C206.068 440.198 205.83 440.791 205.83 441.5C205.83 442.209 206.068 442.807 206.544 443.292C207.02 443.768 207.613 444.006 208.322 444.006ZM219.52 444.118C218.801 444.827 217.928 445.182 216.902 445.182C215.875 445.182 215.002 444.827 214.284 444.118C213.574 443.409 213.22 442.536 213.22 441.5C213.22 440.464 213.574 439.591 214.284 438.882C215.002 438.173 215.875 437.818 216.902 437.818C217.928 437.818 218.801 438.173 219.52 438.882C220.238 439.591 220.598 440.464 220.598 441.5C220.598 442.536 220.238 443.409 219.52 444.118ZM216.902 443.992C217.602 443.992 218.19 443.754 218.666 443.278C219.142 442.802 219.38 442.209 219.38 441.5C219.38 440.791 219.142 440.198 218.666 439.722C218.19 439.246 217.602 439.008 216.902 439.008C216.211 439.008 215.628 439.246 215.152 439.722C214.676 440.198 214.438 440.791 214.438 441.5C214.438 442.209 214.676 442.802 215.152 443.278C215.628 443.754 216.211 443.992 216.902 443.992ZM223.392 439.176C223.793 438.308 224.521 437.874 225.576 437.874V439.148C224.978 439.12 224.465 439.279 224.036 439.624C223.606 439.969 223.392 440.525 223.392 441.29V445H222.174V438H223.392V439.176ZM230.879 439.176H229.017V442.97C229.017 443.315 229.083 443.563 229.213 443.712C229.353 443.852 229.563 443.927 229.843 443.936C230.123 443.936 230.469 443.927 230.879 443.908V445C229.815 445.14 229.036 445.056 228.541 444.748C228.047 444.431 227.799 443.838 227.799 442.97V439.176H226.413V438H227.799V436.404L229.017 436.04V438H230.879V439.176ZM244.164 444.594L243.072 445.224L242.078 444.16C241.35 444.841 240.417 445.182 239.278 445.182C238.298 445.182 237.505 444.93 236.898 444.426C236.292 443.913 235.988 443.222 235.988 442.354C235.988 441.757 236.138 441.211 236.436 440.716C236.744 440.212 237.192 439.815 237.78 439.526C237.36 438.994 237.15 438.401 237.15 437.748C237.15 436.936 237.43 436.278 237.99 435.774C238.56 435.27 239.241 435.018 240.034 435.018C240.688 435.018 241.28 435.195 241.812 435.55C242.344 435.905 242.727 436.395 242.96 437.02L241.868 437.65C241.728 437.221 241.495 436.885 241.168 436.642C240.851 436.399 240.482 436.278 240.062 436.278C239.614 436.278 239.232 436.413 238.914 436.684C238.606 436.955 238.452 437.305 238.452 437.734C238.452 438.042 238.522 438.322 238.662 438.574C238.812 438.817 239.031 439.092 239.32 439.4L241.994 442.256C242.228 441.771 242.396 441.178 242.498 440.478L243.618 441.122C243.488 441.897 243.236 442.592 242.862 443.208L244.164 444.594ZM239.306 443.95C240.081 443.95 240.725 443.721 241.238 443.264L238.592 440.422C238.144 440.609 237.813 440.87 237.598 441.206C237.393 441.542 237.29 441.897 237.29 442.27C237.29 442.793 237.468 443.203 237.822 443.502C238.177 443.801 238.672 443.95 239.306 443.95ZM255.59 435.2V436.432H252.692V445H251.404V436.432H248.52V435.2H255.59ZM261.529 444.118C260.81 444.827 259.938 445.182 258.911 445.182C257.884 445.182 257.012 444.827 256.293 444.118C255.584 443.409 255.229 442.536 255.229 441.5C255.229 440.464 255.584 439.591 256.293 438.882C257.012 438.173 257.884 437.818 258.911 437.818C259.938 437.818 260.81 438.173 261.529 438.882C262.248 439.591 262.607 440.464 262.607 441.5C262.607 442.536 262.248 443.409 261.529 444.118ZM258.911 443.992C259.611 443.992 260.199 443.754 260.675 443.278C261.151 442.802 261.389 442.209 261.389 441.5C261.389 440.791 261.151 440.198 260.675 439.722C260.199 439.246 259.611 439.008 258.911 439.008C258.22 439.008 257.637 439.246 257.161 439.722C256.685 440.198 256.447 440.791 256.447 441.5C256.447 442.209 256.685 442.802 257.161 443.278C257.637 443.754 258.22 443.992 258.911 443.992ZM264.183 445V434.78H265.401V445H264.183ZM267.399 445V434.78H268.617V445H267.399Z" fill="#074C43"/>
<circle cx="139" cy="441" r="18" fill="#EDE4F6"/>
<path d="M130.927 435.01C131.16 434.42 131.813 434 132.583 434H145.417C146.187 434 146.828 434.42 147.073 435.01L149.5 441V449C149.5 449.55 148.975 450 148.333 450H147.167C146.525 450 146 449.55 146 449V448H132V449C132 449.55 131.475 450 130.833 450H129.667C129.025 450 128.5 449.55 128.5 449V441L130.927 435.01ZM145.008 436H133.003L131.743 439.11H146.268L145.008 436ZM130.833 446H147.167V441H130.833V446Z" fill="#074C43"/>
<path d="M144.25 445C143.786 445 143.341 444.842 143.013 444.561C142.684 444.279 142.5 443.898 142.5 443.5C142.5 443.102 142.684 442.721 143.013 442.439C143.341 442.158 143.786 442 144.25 442C144.714 442 145.159 442.158 145.487 442.439C145.816 442.721 146 443.102 146 443.5C146 443.898 145.816 444.279 145.487 444.561C145.159 444.842 144.714 445 144.25 445V445Z" fill="#074C43"/>
<path d="M133.75 445C133.286 445 132.841 444.842 132.513 444.561C132.184 444.279 132 443.898 132 443.5C132 443.102 132.184 442.721 132.513 442.439C132.841 442.158 133.286 442 133.75 442C134.214 442 134.659 442.158 134.987 442.439C135.316 442.721 135.5 443.102 135.5 443.5C135.5 443.898 135.316 444.279 134.987 444.561C134.659 444.842 134.214 445 133.75 445Z" fill="#074C43"/>
<g filter="url(#filter1_bd_2245_1883)">
<rect x="21" y="52" width="280" height="94" rx="10" fill="white" fill-opacity="0.36" shape-rendering="crispEdges"/>
<rect x="21.345" y="52.345" width="279.31" height="93.31" rx="9.655" stroke="url(#paint1_linear_2245_1883)" stroke-width="0.69" shape-rendering="crispEdges"/>
</g>
<path d="M104.922 91.4C106.086 91.4 107.052 91.79 107.82 92.57C108.6 93.338 108.99 94.298 108.99 95.45C108.99 96.59 108.6 97.55 107.82 98.33C107.052 99.11 106.086 99.5 104.922 99.5H102.024V104H100.35V91.4H104.922ZM104.922 97.934C105.618 97.934 106.194 97.7 106.65 97.232C107.106 96.752 107.334 96.158 107.334 95.45C107.334 94.73 107.106 94.136 106.65 93.668C106.194 93.2 105.618 92.966 104.922 92.966H102.024V97.934H104.922ZM117.752 95H119.318V104H117.752V102.452C116.972 103.64 115.838 104.234 114.35 104.234C113.09 104.234 112.016 103.778 111.128 102.866C110.24 101.942 109.796 100.82 109.796 99.5C109.796 98.18 110.24 97.064 111.128 96.152C112.016 95.228 113.09 94.766 114.35 94.766C115.838 94.766 116.972 95.36 117.752 96.548V95ZM114.548 102.722C115.46 102.722 116.222 102.416 116.834 101.804C117.446 101.18 117.752 100.412 117.752 99.5C117.752 98.588 117.446 97.826 116.834 97.214C116.222 96.59 115.46 96.278 114.548 96.278C113.648 96.278 112.892 96.59 112.28 97.214C111.668 97.826 111.362 98.588 111.362 99.5C111.362 100.412 111.668 101.18 112.28 101.804C112.892 102.416 113.648 102.722 114.548 102.722ZM128.152 95H129.826L126.154 104.558C125.77 105.578 125.23 106.352 124.534 106.88C123.85 107.42 123.058 107.66 122.158 107.6V106.142C123.262 106.226 124.072 105.614 124.588 104.306L124.75 103.964L120.826 95H122.5L125.56 102.056L128.152 95ZM141.034 94.766C142.042 94.766 142.858 95.096 143.482 95.756C144.106 96.404 144.418 97.286 144.418 98.402V104H142.852V98.456C142.852 97.76 142.672 97.22 142.312 96.836C141.952 96.452 141.472 96.26 140.872 96.26C140.2 96.26 139.66 96.488 139.252 96.944C138.856 97.388 138.658 98.072 138.658 98.996V104H137.092V98.456C137.092 97.76 136.918 97.22 136.57 96.836C136.234 96.452 135.772 96.26 135.184 96.26C134.524 96.26 133.972 96.488 133.528 96.944C133.096 97.4 132.88 98.084 132.88 98.996V104H131.314V95H132.88V96.206C133.492 95.246 134.386 94.766 135.562 94.766C136.774 94.766 137.656 95.276 138.208 96.296C138.832 95.276 139.774 94.766 141.034 94.766ZM147.867 100.22C148.023 101.024 148.389 101.648 148.965 102.092C149.553 102.536 150.273 102.758 151.125 102.758C152.313 102.758 153.177 102.32 153.717 101.444L155.049 102.2C154.173 103.556 152.853 104.234 151.089 104.234C149.661 104.234 148.497 103.79 147.597 102.902C146.709 102.002 146.265 100.868 146.265 99.5C146.265 98.144 146.703 97.016 147.579 96.116C148.455 95.216 149.589 94.766 150.981 94.766C152.301 94.766 153.375 95.234 154.203 96.17C155.043 97.094 155.463 98.21 155.463 99.518C155.463 99.746 155.445 99.98 155.409 100.22H147.867ZM150.981 96.242C150.141 96.242 149.445 96.482 148.893 96.962C148.341 97.43 147.999 98.06 147.867 98.852H153.879C153.747 98 153.411 97.352 152.871 96.908C152.331 96.464 151.701 96.242 150.981 96.242ZM161.925 94.766C162.981 94.766 163.827 95.102 164.463 95.774C165.099 96.434 165.417 97.334 165.417 98.474V104H163.851V98.564C163.851 97.832 163.653 97.268 163.257 96.872C162.861 96.464 162.315 96.26 161.619 96.26C160.839 96.26 160.209 96.506 159.729 96.998C159.249 97.478 159.009 98.222 159.009 99.23V104H157.443V95H159.009V96.296C159.645 95.276 160.617 94.766 161.925 94.766ZM172.68 96.512H170.286V101.39C170.286 101.834 170.37 102.152 170.538 102.344C170.718 102.524 170.988 102.62 171.348 102.632C171.708 102.632 172.152 102.62 172.68 102.596V104C171.312 104.18 170.31 104.072 169.674 103.676C169.038 103.268 168.72 102.506 168.72 101.39V96.512H166.938V95H168.72V92.948L170.286 92.48V95H172.68V96.512ZM180.796 97.43C180.796 97.778 180.97 98.06 181.318 98.276C181.666 98.48 182.086 98.648 182.578 98.78C183.07 98.9 183.562 99.044 184.054 99.212C184.546 99.368 184.966 99.644 185.314 100.04C185.662 100.424 185.836 100.922 185.836 101.534C185.836 102.35 185.518 103.004 184.882 103.496C184.258 103.988 183.454 104.234 182.47 104.234C181.594 104.234 180.844 104.042 180.22 103.658C179.596 103.274 179.152 102.764 178.888 102.128L180.238 101.354C180.382 101.786 180.652 102.128 181.048 102.38C181.444 102.632 181.918 102.758 182.47 102.758C182.986 102.758 183.412 102.662 183.748 102.47C184.084 102.266 184.252 101.954 184.252 101.534C184.252 101.186 184.078 100.91 183.73 100.706C183.382 100.49 182.962 100.322 182.47 100.202C181.978 100.07 181.486 99.92 180.994 99.752C180.502 99.584 180.082 99.308 179.734 98.924C179.386 98.54 179.212 98.048 179.212 97.448C179.212 96.668 179.512 96.026 180.112 95.522C180.724 95.018 181.486 94.766 182.398 94.766C183.13 94.766 183.778 94.934 184.342 95.27C184.918 95.594 185.35 96.05 185.638 96.638L184.324 97.376C184 96.608 183.358 96.224 182.398 96.224C181.954 96.224 181.576 96.332 181.264 96.548C180.952 96.752 180.796 97.046 180.796 97.43ZM193.993 95H195.559V104H193.993V102.704C193.357 103.724 192.385 104.234 191.077 104.234C190.021 104.234 189.175 103.904 188.539 103.244C187.903 102.572 187.585 101.666 187.585 100.526V95H189.151V100.436C189.151 101.168 189.349 101.738 189.745 102.146C190.141 102.542 190.687 102.74 191.383 102.74C192.163 102.74 192.793 102.5 193.273 102.02C193.753 101.528 193.993 100.778 193.993 99.77V95ZM202.353 104.234C200.997 104.234 199.869 103.784 198.969 102.884C198.069 101.972 197.619 100.844 197.619 99.5C197.619 98.156 198.069 97.034 198.969 96.134C199.869 95.222 200.997 94.766 202.353 94.766C203.241 94.766 204.039 94.982 204.747 95.414C205.455 95.834 205.983 96.404 206.331 97.124L205.017 97.88C204.789 97.4 204.435 97.016 203.955 96.728C203.487 96.44 202.953 96.296 202.353 96.296C201.453 96.296 200.697 96.602 200.085 97.214C199.485 97.826 199.185 98.588 199.185 99.5C199.185 100.4 199.485 101.156 200.085 101.768C200.697 102.38 201.453 102.686 202.353 102.686C202.953 102.686 203.493 102.548 203.973 102.272C204.453 101.984 204.819 101.6 205.071 101.12L206.403 101.894C206.019 102.602 205.467 103.172 204.747 103.604C204.027 104.024 203.229 104.234 202.353 104.234ZM212.236 104.234C210.88 104.234 209.752 103.784 208.852 102.884C207.952 101.972 207.502 100.844 207.502 99.5C207.502 98.156 207.952 97.034 208.852 96.134C209.752 95.222 210.88 94.766 212.236 94.766C213.124 94.766 213.922 94.982 214.63 95.414C215.338 95.834 215.866 96.404 216.214 97.124L214.9 97.88C214.672 97.4 214.318 97.016 213.838 96.728C213.37 96.44 212.836 96.296 212.236 96.296C211.336 96.296 210.58 96.602 209.968 97.214C209.368 97.826 209.068 98.588 209.068 99.5C209.068 100.4 209.368 101.156 209.968 101.768C210.58 102.38 211.336 102.686 212.236 102.686C212.836 102.686 213.376 102.548 213.856 102.272C214.336 101.984 214.702 101.6 214.954 101.12L216.286 101.894C215.902 102.602 215.35 103.172 214.63 103.604C213.91 104.024 213.112 104.234 212.236 104.234ZM218.987 100.22C219.143 101.024 219.509 101.648 220.085 102.092C220.673 102.536 221.393 102.758 222.245 102.758C223.433 102.758 224.297 102.32 224.837 101.444L226.169 102.2C225.293 103.556 223.973 104.234 222.209 104.234C220.781 104.234 219.617 103.79 218.717 102.902C217.829 102.002 217.385 100.868 217.385 99.5C217.385 98.144 217.823 97.016 218.699 96.116C219.575 95.216 220.709 94.766 222.101 94.766C223.421 94.766 224.495 95.234 225.323 96.17C226.163 97.094 226.583 98.21 226.583 99.518C226.583 99.746 226.565 99.98 226.529 100.22H218.987ZM222.101 96.242C221.261 96.242 220.565 96.482 220.013 96.962C219.461 97.43 219.119 98.06 218.987 98.852H224.999C224.867 98 224.531 97.352 223.991 96.908C223.451 96.464 222.821 96.242 222.101 96.242ZM229.562 97.43C229.562 97.778 229.736 98.06 230.084 98.276C230.432 98.48 230.852 98.648 231.344 98.78C231.836 98.9 232.328 99.044 232.82 99.212C233.312 99.368 233.732 99.644 234.08 100.04C234.428 100.424 234.602 100.922 234.602 101.534C234.602 102.35 234.284 103.004 233.648 103.496C233.024 103.988 232.22 104.234 231.236 104.234C230.36 104.234 229.61 104.042 228.986 103.658C228.362 103.274 227.918 102.764 227.654 102.128L229.004 101.354C229.148 101.786 229.418 102.128 229.814 102.38C230.21 102.632 230.684 102.758 231.236 102.758C231.752 102.758 232.178 102.662 232.514 102.47C232.85 102.266 233.018 101.954 233.018 101.534C233.018 101.186 232.844 100.91 232.496 100.706C232.148 100.49 231.728 100.322 231.236 100.202C230.744 100.07 230.252 99.92 229.76 99.752C229.268 99.584 228.848 99.308 228.5 98.924C228.152 98.54 227.978 98.048 227.978 97.448C227.978 96.668 228.278 96.026 228.878 95.522C229.49 95.018 230.252 94.766 231.164 94.766C231.896 94.766 232.544 94.934 233.108 95.27C233.684 95.594 234.116 96.05 234.404 96.638L233.09 97.376C232.766 96.608 232.124 96.224 231.164 96.224C230.72 96.224 230.342 96.332 230.03 96.548C229.718 96.752 229.562 97.046 229.562 97.43ZM237.423 97.43C237.423 97.778 237.597 98.06 237.945 98.276C238.293 98.48 238.713 98.648 239.205 98.78C239.697 98.9 240.189 99.044 240.681 99.212C241.173 99.368 241.593 99.644 241.941 100.04C242.289 100.424 242.463 100.922 242.463 101.534C242.463 102.35 242.145 103.004 241.509 103.496C240.885 103.988 240.081 104.234 239.097 104.234C238.221 104.234 237.471 104.042 236.847 103.658C236.223 103.274 235.779 102.764 235.515 102.128L236.865 101.354C237.009 101.786 237.279 102.128 237.675 102.38C238.071 102.632 238.545 102.758 239.097 102.758C239.613 102.758 240.039 102.662 240.375 102.47C240.711 102.266 240.879 101.954 240.879 101.534C240.879 101.186 240.705 100.91 240.357 100.706C240.009 100.49 239.589 100.322 239.097 100.202C238.605 100.07 238.113 99.92 237.621 99.752C237.129 99.584 236.709 99.308 236.361 98.924C236.013 98.54 235.839 98.048 235.839 97.448C235.839 96.668 236.139 96.026 236.739 95.522C237.351 95.018 238.113 94.766 239.025 94.766C239.757 94.766 240.405 94.934 240.969 95.27C241.545 95.594 241.977 96.05 242.265 96.638L240.951 97.376C240.627 96.608 239.985 96.224 239.025 96.224C238.581 96.224 238.203 96.332 237.891 96.548C237.579 96.752 237.423 97.046 237.423 97.43ZM248.93 92.678C247.346 92.546 246.554 93.23 246.554 94.73V95H248.93V96.512H246.554V104H244.988V96.512H243.548V95H244.988V94.73C244.988 93.518 245.324 92.6 245.996 91.976C246.68 91.352 247.658 91.082 248.93 91.166V92.678ZM256.512 95H258.078V104H256.512V102.704C255.876 103.724 254.904 104.234 253.596 104.234C252.54 104.234 251.694 103.904 251.058 103.244C250.422 102.572 250.104 101.666 250.104 100.526V95H251.67V100.436C251.67 101.168 251.868 101.738 252.264 102.146C252.66 102.542 253.206 102.74 253.902 102.74C254.682 102.74 255.312 102.5 255.792 102.02C256.272 101.528 256.512 100.778 256.512 99.77V95ZM260.643 104V90.86H262.209V104H260.643Z" fill="black"/>
<circle opacity="0.6" cx="63" cy="99" r="16" fill="#CAFFD9"/>
<path d="M63 89.2222C61.0661 89.2222 59.1757 89.7957 57.5678 90.8701C55.9598 91.9445 54.7066 93.4716 53.9665 95.2582C53.2265 97.0449 53.0328 99.0109 53.4101 100.908C53.7874 102.804 54.7186 104.546 56.0861 105.914C57.4535 107.281 59.1958 108.213 61.0925 108.59C62.9892 108.967 64.9551 108.774 66.7418 108.033C68.5285 107.293 70.0555 106.04 71.1299 104.432C72.2043 102.824 72.7778 100.934 72.7778 99C72.7778 96.4068 71.7476 93.9198 69.9139 92.0861C68.0803 90.2524 65.5932 89.2222 63 89.2222V89.2222ZM69.3861 95.7183L61.3561 103.742L56.6139 99C56.4518 98.8379 56.3608 98.6181 56.3608 98.3889C56.3608 98.1597 56.4518 97.9399 56.6139 97.7778C56.776 97.6157 56.9958 97.5247 57.225 97.5247C57.4542 97.5247 57.674 97.6157 57.8361 97.7778L61.3683 101.31L68.1761 94.5083C68.2564 94.4281 68.3516 94.3644 68.4565 94.321C68.5614 94.2776 68.6737 94.2552 68.7872 94.2552C68.9007 94.2552 69.0131 94.2776 69.118 94.321C69.2228 94.3644 69.3181 94.4281 69.3983 94.5083C69.4786 94.5886 69.5423 94.6839 69.5857 94.7887C69.6291 94.8936 69.6515 95.006 69.6515 95.1195C69.6515 95.2329 69.6291 95.3453 69.5857 95.4502C69.5423 95.555 69.4786 95.6503 69.3983 95.7306L69.3861 95.7183Z" fill="#4ECB71"/>
<defs>
<filter id="filter0_bd_2245_1883" x="57" y="104" width="404" height="436.17" filterUnits="userSpaceOnUse" color-interpolation-filters="sRGB">
<feFlood flood-opacity="0" result="BackgroundImageFix"/>
<feGaussianBlur in="BackgroundImage" stdDeviation="25"/>
<feComposite in2="SourceAlpha" operator="in" result="effect1_backgroundBlur_2245_1883"/>
<feColorMatrix in="SourceAlpha" type="matrix" values="0 0 0 0 0 0 0 0 0 0 0 0 0 0 0 0 0 0 127 0" result="hardAlpha"/>
<feOffset dy="46.33"/>
<feGaussianBlur stdDeviation="10.42"/>
<feComposite in2="hardAlpha" operator="out"/>
<feColorMatrix type="matrix" values="0 0 0 0 0.437288 0 0 0 0 0.211356 0 0 0 0 0.648644 0 0 0 0.15 0"/>
<feBlend mode="normal" in2="effect1_backgroundBlur_2245_1883" result="effect2_dropShadow_2245_1883"/>
<feBlend mode="normal" in="SourceGraphic" in2="effect2_dropShadow_2245_1883" result="shape"/>
</filter>
<filter id="filter1_bd_2245_1883" x="-29" y="2" width="380" height="211.17" filterUnits="userSpaceOnUse" color-interpolation-filters="sRGB">
<feFlood flood-opacity="0" result="BackgroundImageFix"/>
<feGaussianBlur in="BackgroundImage" stdDeviation="25"/>
<feComposite in2="SourceAlpha" operator="in" result="effect1_backgroundBlur_2245_1883"/>
<feColorMatrix in="SourceAlpha" type="matrix" values="0 0 0 0 0 0 0 0 0 0 0 0 0 0 0 0 0 0 127 0" result="hardAlpha"/>
<feOffset dy="46.33"/>
<feGaussianBlur stdDeviation="10.42"/>
<feComposite in2="hardAlpha" operator="out"/>
<feColorMatrix type="matrix" values="0 0 0 0 0.437288 0 0 0 0 0.211356 0 0 0 0 0.648644 0 0 0 0.1 0"/>
<feBlend mode="normal" in2="effect1_backgroundBlur_2245_1883" result="effect2_dropShadow_2245_1883"/>
<feBlend mode="normal" in="SourceGraphic" in2="effect2_dropShadow_2245_1883" result="shape"/>
</filter>
<linearGradient id="paint0_linear_2245_1883" x1="-11.9776" y1="313.5" x2="544.061" y2="313.5" gradientUnits="userSpaceOnUse">
<stop stop-color="white" stop-opacity="0.15"/>
<stop offset="1" stop-color="#C4C4C4" stop-opacity="0.3"/>
</linearGradient>
<linearGradient id="paint1_linear_2245_1883" x1="-88.5847" y1="99" x2="423.556" y2="99" gradientUnits="userSpaceOnUse">
<stop stop-color="white" stop-opacity="0.15"/>
<stop offset="1" stop-color="#C4C4C4" stop-opacity="0.3"/>
</linearGradient>
</defs>
</svg>
